<svg width="1439" height="98" viewBox="0 0 1439 98" fill="none" xmlns="http://www.w3.org/2000/svg">
<g clip-path="url(#clip0)">
<path fill-rule="evenodd" clip-rule="evenodd" d="M1437.7 100.251L1377.83 96.3246C1317.96 92.3981 1198.22 84.545 1079.49 61.2354C960.805 37.1899 843.138 -2.31216 722.72 0.139077C602.253 3.32634 479.035 48.4669 357.216 72.2628C235.398 96.0587 114.979 98.5099 54.7218 100.472L-5.48746 101.697L-7.56309 133.346L52.3083 137.273C112.18 141.199 231.922 149.052 351.665 156.905C471.408 164.758 591.151 172.611 710.894 180.465C830.636 188.318 950.379 196.171 1070.12 204.024C1189.86 211.877 1309.61 219.73 1369.48 223.656L1429.35 227.583L1437.7 100.251Z" fill="#111111"/>
</g>
<defs>
<clipPath id="clip0">
<rect width="1440" height="2510" fill="white" transform="translate(-1 -2159)"/>
</clipPath>
</defs>
</svg>
