<svg width="1439" height="132" viewBox="0 0 1439 132" fill="none" xmlns="http://www.w3.org/2000/svg">
<g clip-path="url(#clip0)">
<path fill-rule="evenodd" clip-rule="evenodd" d="M-2.42906 41.0588L57.4999 43.9774C117.429 46.8959 237.287 52.733 356.358 74.7217C475.392 97.4796 593.639 136.389 714.022 131.458C834.442 125.759 956.996 76.2186 1078.46 48.9832C1199.93 21.7479 1320.32 16.8172 1380.54 13.5828L1440.74 11.1174L1442.35 -21.955L1382.42 -24.8735C1322.49 -27.7921 1202.63 -33.6292 1082.77 -39.4663C962.915 -45.3033 843.057 -51.1404 723.199 -56.9775C603.341 -62.8146 483.483 -68.6517 363.625 -74.4888C243.767 -80.3258 123.909 -86.1629 63.9799 -89.0815L4.0509 -92L-2.42906 41.0588Z" fill="#111111"/>
</g>
<defs>
<clipPath id="clip0">
<rect width="1440" height="2510" fill="white" transform="translate(-1)"/>
</clipPath>
</defs>
</svg>
